DataType=double
version=3
OpenSimVersion=4.5-2024-01-10-34fd6af
endheader
time	ground_force_2_vx	ground_force_2_vy	ground_force_2_vz	ground_moment_2_mx	ground_moment_2_my	ground_moment_2_mz	ground_force_2_px	ground_force_2_py	ground_force_2_pz	ground_force_1_vx	ground_force_1_vy	ground_force_1_vz	ground_moment_1_mx	ground_moment_1_my	ground_moment_1_mz	ground_force_1_px	ground_force_1_py	ground_force_1_pz
2.235	-3.901382840166852	25.57899868206454	4.098289601647735	0.3203877653069709	0.461327137211896	-4.577312140588728	1.097636945977779	0.05368940578400443	0.5848330845249347	116.9029366230883	667.1281191652065	33.0995344601611	-10.36879479548658	-1.030726493042895	26.05293076186906	0.5400216811777881	0.05368940578400443	0.3975350570179986
2.24	-6.325042784266884	58.02042610970375	5.633648262608929	0.7031057898676978	0.6273160460411595	-8.140886650184283	1.095464863459231	0.05368940578400443	0.5843039881166978	118.3330983224972	652.0683385443626	32.36417351763914	-10.81616591542589	-0.6092913766334667	25.76841442774192	0.5362310863224162	0.05368940578400443	0.3973590686298199
2.245	-9.028143019083254	91.86163390313624	7.036404054648028	1.096697928773116	0.781423514671525	-11.81484114730243	1.093134757537174	0.05368940578400443	0.583757945669262	119.427604665588	635.4924468204017	31.49939693315057	-11.22063503482225	-0.1949344359971761	25.40413703857858	0.5323310590649931	0.05368940578400443	0.3971891810576531
2.25	-12.02635947874046	126.880368537183	8.256088988733996	1.497508883420691	0.9186936514779859	-15.56435245185315	1.090645843908822	0.05368940578400443	0.5831996998145068	120.1008587219092	617.3534963416646	30.49343835620037	-11.56795055940568	0.2043444157178085	24.95005297576046	0.5283600547177818	0.05368940578400443	0.3970300816482549
2.255	-15.33081631928301	162.8499770463241	9.243737528249277	1.901959435957976	1.034289364179968	-19.35367785088622	1.087996994703522	0.05368940578400443	0.5826339312361873	120.2701592545001	597.620625923417	29.33924926889791	-11.84455754411114	0.5810029162030168	24.39771918744278	0.5243561508347718	0.05368940578400443	0.3968867171710389
2.26	-18.94636258113255	199.5409152309863	9.953655161468507	2.306622710349886	1.123660170099385	-23.14657554695463	1.085187014377271	0.05368940578400443	0.5820651736351147	119.8590871720343	576.2844568880322	28.03374425461328	-12.0382110576561	0.9282463478381611	23.74094641333128	0.5203564298490899	0.05368940578400443	0.3967642211365104
2.265	-22.87025700376273	236.7225855584642	10.3451282229056	2.708294296810528	1.182709796018226	-26.9067679492619	1.08221488225908	0.05368940578400443	0.5814977374660805	118.8014010041792	553.3644209742178	26.57724481820356	-12.13865339234187	1.240233485779918	22.97641549614195	0.516396558454844	0.05368940578400443	0.3966678333478789
2.27	-27.09130418060699	274.1654537493214	10.38402136837715	3.104053949977894	1.207958359839436	-30.59843841657341	1.079079956821948	0.05368940578400443	0.5809356441259789	117.0449443975067	528.9171950838654	24.97414794833803	-12.13827213332687	1.512194705356613	22.10417109382403	0.512510530715062	0.05368940578400443	0.3966028101166618
2.275	-31.58946487913413	311.6433330571846	10.04419416266687	3.491316099903325	1.196692022379509	-34.18674447544661	1.075782138746196	0.05368940578400443	0.5803825718786287	114.5548139600397	503.0434785593201	23.23458329803928	-12.03263324037514	1.740485401939677	21.1278689830059	0.5087305439316601	0.05368940578400443	0.3965743244063445
2.28	-36.33593786967788	348.9356885697272	9.308660664430604	3.867866437708059	1.147091780284692	-37.63832572327837	1.072321991821152	0.05368940578400443	0.579841814352168	111.31529110838	475.8904740002255	21.376030749526	-11.8208101789564	1.922612401574765	20.05473271599899	0.5050869785903014	0.05368940578400443	0.3965873561574193
2.285	-41.29368337732751	385.8298060324734	8.170418405659955	4.231882370159759	1.058332911345324	-40.92178327111975	1.068700822555412	0.05368940578400443	0.5793162519671451	107.330565649218	447.6490159974833	19.42368886666025	-11.50547161720838	2.057269005839948	18.89526377242343	0.501608456059644	0.05368940578400443	0.3966465741520918
2.29	-46.41833343533443	422.1226884515368	6.632886203722229	4.581936046863532	0.9306476224548867	-44.00810943678671	1.06492072094197	0.05368940578400443	0.5788083361755921	102.624688313741	418.5464987021616	17.40898805373093	-11.09271529619538	2.144385863308123	17.66278987785461	0.498321950103746	0.05368940578400443	0.3967562119395092
2.295	-51.65941543378963	457.6225818939558	4.70991215438465	4.91697976685572	0.7653455727143981	-46.87105063285405	1.060984566094761	0.05368940578400443	0.5783200859397289	97.24109717275608	388.8375220994965	15.36664124553492	-10.59165636779152	2.185164946257024	16.37292228430602	0.4952529306310967	0.05368940578400443	0.3969199414879393
2.3	-56.96180381800808	492.1500804012123	2.425340861831636	5.236314717153006	0.5647898344991509	-49.48739198032776	1.056896001410308	0.05368940578400443	0.5778530954762612	91.24173440759017	358.7935608498191	13.33131663746823	-10.01383206079157	2.182049213521136	15.0429564335649	0.4924255204679734	0.05368940578400443	0.3971407492708877
2.305	-62.2673112521524	525.538809842875	-0.1878412051697111	5.539545074606354	0.3323290922802725	-51.83715814681597	1.05265938450989	0.05368940578400443	0.5774085519564389	84.70577563704794	328.6932872426503	11.33507679579617	-9.372541552346357	2.138604389565671	13.69124059290051	0.4898626483487485	0.05368940578400443	0.3974208203329989
2.31	-67.51633351229459	557.6357344788584	-3.088734936783736	5.826520426816183	0.07219002970719328	-53.90373048202637	1.048279717500537	0.05368940578400443	0.5769872615954127	77.7281244529148	298.8155280062015	9.406225703129552	-8.682227473632803	2.059326491904232	12.33654459589853	0.487586183813923	0.05368940578400443	0.3977614364209164
2.315	-72.64947027826159	588.3011628867567	-6.230061059358134	6.097270179861741	-0.2106634485681942	-55.67388518783413	1.043762563088745	0.05368940578400443	0.5765896823934233	70.41762984294046	269.4347522182379	7.569434581766203	-7.957926910115305	1.949408529401628	10.99744165577487	0.485617042348536	0.05368940578400443	0.398162894417195
2.32	-77.60905515564515	617.4085491640978	-9.559906971186685	6.351934099715078	-0.510695533479782	-57.13776075854818	1.039113951830178	0.05368940578400443	0.5762159617068392	62.89482296080218	240.8168982466601	5.846518714069258	-7.214756609016193	1.814496865330752	9.691697321180961	0.4839752519120973	0.05368940578400443	0.3986244510171779
2.325	-82.34054119592747	644.8441907862158	-13.02358909984759	6.590693372644127	-0.8219786184977645	-58.28876521293548	1.034340285349389	0.05368940578400443	0.5758659768249498	55.28920969636234	213.2141375273136	4.257275236799392	-6.467399734983617	1.660458241547668	8.435681643764278	0.4826799750043189	0.05368940578400443	0.3991442988040789
2.33	-86.79370177559908	670.5069181264271	-16.56552992025044	6.813706544553517	-1.138378221073006	-59.12343481405835	1.029448239765845	0.05368940578400443	0.575539376800716	47.73631671713731	186.8585358049018	2.820007055407849	-5.729594544586261	1.493173163045943	7.243842214509159	0.4817494835309253	0.05368940578400443	0.3997195776090645
